<?xml version="1.0" encoding="UTF-8"?>
<!DOCTYPE svg PUBLIC "-//W3C//DTD SVG 1.1//EN" "http://www.w3.org/Graphics/SVG/1.1/DTD/svg11.dtd">
<svg xmlns="http://www.w3.org/2000/svg" version="1.1" width="2048px" height="2048px" style="shape-rendering:geometricPrecision; text-rendering:geometricPrecision; image-rendering:optimizeQuality; fill-rule:evenodd; clip-rule:evenodd" xmlns:xlink="http://www.w3.org/1999/xlink">
<g><path style="opacity:0.095" fill="#06030e" d="M 1492.5,66.5 C 1504.52,66.1677 1516.52,66.501 1528.5,67.5C 1544.02,72.4432 1558.68,79.1098 1572.5,87.5C 1576.83,91.8333 1581.17,96.1667 1585.5,100.5C 1684.72,272.358 1784.22,444.025 1884,615.5C 1897.67,642.623 1900.17,670.957 1891.5,700.5C 1889.3,706.041 1886.64,711.375 1883.5,716.5C 1862.54,738.326 1837.87,754.159 1809.5,764C 1630.75,805.335 1452.08,846.669 1273.5,888C 1266.36,889.055 1259.36,890.388 1252.5,892C 1243.33,892.172 1234.33,893.005 1225.5,894.5C 1216.67,893.005 1207.67,892.172 1198.5,892C 1185.87,888.394 1173.2,884.894 1160.5,881.5C 1143.53,875.192 1131.86,863.526 1125.5,846.5C 1123.83,841.473 1122.33,836.473 1121,831.5C 1119.61,812.825 1121.11,794.491 1125.5,776.5C 1127.09,773.081 1129.25,770.081 1132,767.5C 1153.54,720.088 1175.37,672.754 1197.5,625.5C 1068.58,573.952 934.914,544.452 796.5,537C 769.167,536.333 741.833,536.333 714.5,537C 694.822,538.118 675.155,539.451 655.5,541C 588.779,548.743 524.779,566.743 463.5,595C 418.889,615.31 375.889,638.81 334.5,665.5C 324.833,672.5 315.167,679.5 305.5,686.5C 257.011,727.653 213.011,772.987 173.5,822.5C 159.676,841.476 146.343,860.809 133.5,880.5C 131.5,882.5 129.5,884.5 127.5,886.5C 124.649,892.203 121.815,897.87 119,903.5C 118.506,905.134 118.34,906.801 118.5,908.5C 117.167,908.5 115.833,908.5 114.5,908.5C 114.335,904.818 114.501,901.152 115,897.5C 145.271,758.948 199.271,630.281 277,511.5C 398.869,340.55 562.703,235.716 768.5,197C 826.546,187.894 885.213,184.56 944.5,187C 963.684,188.321 983.017,188.988 1002.5,189C 1110.8,194.357 1216.47,213.69 1319.5,247C 1334.29,252.344 1349.29,257.511 1364.5,262.5C 1367.45,253.376 1370.95,244.376 1375,235.5C 1393.82,193.86 1412.65,152.193 1431.5,110.5C 1447.26,89.0186 1467.59,74.3519 1492.5,66.5 Z"/></g>
<g><path style="opacity:0.635" fill="#322192" d="M 827.5,191.5 C 822.731,192.889 817.731,193.556 812.5,193.5C 817.269,192.111 822.269,191.444 827.5,191.5 Z"/></g>
<g><path style="opacity:0.708" fill="#32208e" d="M 939.5,189.5 C 912.833,189.5 886.167,189.5 859.5,189.5C 886.162,186.966 912.829,186.966 939.5,189.5 Z"/></g>
<g><path style="opacity:1" fill="#4e2cd3" d="M 1819.5,756.5 C 1814.05,757.209 1808.55,756.876 1803,755.5C 1800.61,757.367 1798.11,758.034 1795.5,757.5C 1793.05,757.98 1790.88,758.98 1789,760.5C 1785.6,759.416 1782.43,760.083 1779.5,762.5C 1778.83,762.167 1778.17,761.833 1777.5,761.5C 1772.12,763.577 1766.62,765.244 1761,766.5C 1758.28,763.701 1755.78,763.868 1753.5,767C 1755.5,767.333 1757.5,767.667 1759.5,768C 1757.48,768.45 1755.65,769.283 1754,770.5C 1752.58,769.54 1751.08,768.707 1749.5,768C 1753.27,767.234 1753.1,766.401 1749,765.5C 1747.78,765.862 1746.61,766.362 1745.5,767C 1746.17,767.333 1746.83,767.667 1747.5,768C 1743.25,770.768 1739.08,770.934 1735,768.5C 1732.36,774.037 1730.86,773.704 1730.5,767.5C 1729.5,767.5 1728.5,767.5 1727.5,767.5C 1727.5,768.833 1727.5,770.167 1727.5,771.5C 1717.16,771.334 1706.83,771.5 1696.5,772C 1704.5,772.333 1712.5,772.667 1720.5,773C 1661.83,773.333 1603.17,773.667 1544.5,774C 1544.17,774.333 1543.83,774.667 1543.5,775C 1601.17,775.333 1658.83,775.667 1716.5,776C 1714.39,776.557 1712.39,777.391 1710.5,778.5C 1707.63,775.887 1704.8,775.887 1702,778.5C 1700.27,777.424 1698.44,777.257 1696.5,778C 1692.54,779.126 1688.54,780.126 1684.5,781C 1685.33,781.915 1686.33,782.581 1687.5,783C 1686.83,783.333 1686.17,783.667 1685.5,784C 1683.44,783.136 1680.77,782.803 1677.5,783C 1676.3,783.654 1676.3,784.154 1677.5,784.5C 1681.14,783.975 1680.81,784.642 1676.5,786.5C 1673.84,784.432 1671.84,784.598 1670.5,787C 1667.17,787.333 1663.83,787.667 1660.5,788C 1660.83,788.333 1661.17,788.667 1661.5,789C 1660.39,789.638 1659.22,790.138 1658,790.5C 1655.88,789.541 1653.71,789.374 1651.5,790C 1653.9,790.805 1653.73,791.638 1651,792.5C 1648.57,791.707 1646.23,791.374 1644,791.5C 1643.5,792 1643,792.5 1642.5,793C 1639.83,793.333 1637.17,793.667 1634.5,794C 1634.83,794.333 1635.17,794.667 1635.5,795C 1633.2,795.895 1630.86,796.729 1628.5,797.5C 1627.69,799.071 1627.36,800.738 1627.5,802.5C 1625.71,802.785 1624.05,802.452 1622.5,801.5C 1623.38,800.749 1624.38,800.249 1625.5,800C 1622.76,796.097 1619.76,795.763 1616.5,799C 1592.1,804.42 1567.77,809.92 1543.5,815.5C 1543.66,813.473 1543.5,811.473 1543,809.5C 1543.31,817.099 1540.98,818.099 1536,812.5C 1533.23,814.66 1530.56,816.994 1528,819.5C 1527,819.167 1526,818.833 1525,818.5C 1523.33,819.502 1522.16,820.668 1521.5,822C 1519.47,822.498 1517.47,822.331 1515.5,821.5C 1471.71,832.476 1427.71,842.643 1383.5,852C 1384.6,853.131 1384.27,853.965 1382.5,854.5C 1381.71,854.069 1380.87,853.735 1380,853.5C 1370.52,855.848 1361.02,857.848 1351.5,859.5C 1351.66,857.473 1351.5,855.473 1351,853.5C 1350.77,856.095 1350.27,858.595 1349.5,861C 1348.5,861.667 1347.5,861.667 1346.5,861C 1345.79,859.745 1344.96,858.579 1344,857.5C 1341.19,859.15 1338.69,861.15 1336.5,863.5C 1335.83,862.833 1335.17,862.167 1334.5,861.5C 1333.17,862.5 1331.83,863.5 1330.5,864.5C 1325.12,866.715 1319.46,867.882 1313.5,868C 1316.17,868.667 1316.17,869.333 1313.5,870C 1311.56,870.743 1309.73,870.576 1308,869.5C 1307.65,871.18 1306.65,872.18 1305,872.5C 1302.55,871.507 1300.05,871.34 1297.5,872C 1292.44,873.492 1287.44,875.159 1282.5,877C 1281.07,877.465 1279.9,878.299 1279,879.5C 1277.56,878.282 1275.9,877.615 1274,877.5C 1263.07,880.15 1252.07,882.484 1241,884.5C 1237.9,884.196 1235.07,883.196 1232.5,881.5C 1226.05,883.035 1219.72,882.701 1213.5,880.5C 1213.17,880.833 1212.83,881.167 1212.5,881.5C 1213.73,882.281 1215.06,882.781 1216.5,883C 1215.79,884.255 1214.96,885.421 1214,886.5C 1211.05,883.257 1207.55,882.591 1203.5,884.5C 1188.98,882.903 1175.32,878.736 1162.5,872C 1164.83,870.48 1164.67,868.98 1162,867.5C 1161.67,867.167 1161.33,866.833 1161,866.5C 1160.67,867.5 1160.33,868.5 1160,869.5C 1159.25,864.958 1159.42,860.458 1160.5,856C 1159.53,853.889 1158.69,851.722 1158,849.5C 1157.69,855.186 1157.19,860.853 1156.5,866.5C 1157.18,867.817 1157.85,869.15 1158.5,870.5C 1157.5,870.5 1156.5,870.5 1155.5,870.5C 1155.73,865.752 1155.23,861.085 1154,856.5C 1153.67,857.167 1153.33,857.833 1153,858.5C 1152.33,847.833 1151.67,847.833 1151,858.5C 1150.67,857.167 1150.33,855.833 1150,854.5C 1149.58,855.956 1148.74,856.456 1147.5,856C 1144.28,853.56 1141.28,850.894 1138.5,848C 1139.27,845.733 1140.6,843.9 1142.5,842.5C 1141.73,841.289 1140.89,841.289 1140,842.5C 1139.29,840.919 1138.46,839.419 1137.5,838C 1138.91,837.632 1139.91,836.799 1140.5,835.5C 1139.74,831.233 1138.24,826.9 1136,822.5C 1136.5,814.493 1136.33,806.493 1135.5,798.5C 1134.81,799.025 1134.31,799.692 1134,800.5C 1133.65,805.184 1133.15,809.851 1132.5,814.5C 1132.3,816.286 1131.47,817.619 1130,818.5C 1128.61,824.499 1128.28,830.499 1129,836.5C 1126.29,829.602 1125.12,822.436 1125.5,815C 1125.67,805.76 1126.51,796.593 1128,787.5C 1128.33,788.167 1128.67,788.833 1129,789.5C 1131.59,786.285 1131.76,782.785 1129.5,779C 1130.33,778.085 1131.33,777.419 1132.5,777C 1132.15,775.374 1132.15,773.541 1132.5,771.5C 1155.14,722.517 1177.8,673.517 1200.5,624.5C 1184.2,617.84 1167.86,611.506 1151.5,605.5C 1150.97,604.279 1150.31,603.113 1149.5,602C 1140.54,600.285 1132.04,597.452 1124,593.5C 1123.44,594.022 1122.77,594.355 1122,594.5C 1119.71,593.069 1117.21,592.236 1114.5,592C 1115.83,591.333 1115.83,590.667 1114.5,590C 1112.29,589.83 1110.29,589.163 1108.5,588C 1106.43,587.313 1104.43,587.48 1102.5,588.5C 1101.64,585.707 1099.48,585.041 1096,586.5C 1095.5,586.333 1095,586.167 1094.5,586C 1095.83,585.333 1095.83,584.667 1094.5,584C 1092.76,583.349 1091.1,583.515 1089.5,584.5C 1088.49,584.062 1088.49,583.396 1089.5,582.5C 1085.81,581.944 1082.31,580.944 1079,579.5C 1078,579.833 1077,580.167 1076,580.5C 1073.31,577.435 1070.15,576.768 1066.5,578.5C 961.607,549.867 854.774,535.201 746,534.5C 706.381,535.085 666.881,537.585 627.5,542C 609.425,545.186 591.425,548.686 573.5,552.5C 572.5,552.5 571.5,552.5 570.5,552.5C 570.5,550.833 570.5,549.167 570.5,547.5C 568.61,547.703 567.11,547.037 566,545.5C 564.29,548.896 561.457,550.396 557.5,550C 555.788,552.519 553.621,553.019 551,551.5C 549.776,554.473 547.776,555.14 545,553.5C 544.167,554.333 543.333,555.167 542.5,556C 532.932,558.511 524.098,561.678 516,565.5C 515.667,565.167 515.333,564.833 515,564.5C 510.352,566.464 505.686,568.464 501,570.5C 500.228,570.355 499.561,570.022 499,569.5C 497.336,572.498 495.003,573.165 492,571.5C 487.886,572.202 484.386,573.369 481.5,575C 482.5,575.333 483.5,575.667 484.5,576C 479.658,577.948 474.658,579.281 469.5,580C 471.167,580.333 472.833,580.667 474.5,581C 467.765,582.673 462.098,586.006 457.5,591C 456.101,591.595 454.768,591.428 453.5,590.5C 452.251,592.475 450.751,592.809 449,591.5C 448.581,592.672 447.915,593.672 447,594.5C 445.333,594.167 443.667,593.833 442,593.5C 435.269,597.663 428.102,601.163 420.5,604C 421.451,604.718 421.617,605.551 421,606.5C 419.989,605.663 418.822,605.33 417.5,605.5C 417.62,608.205 416.62,608.872 414.5,607.5C 413.833,608.5 413.167,609.5 412.5,610.5C 411.232,609.572 409.899,609.405 408.5,610C 408.957,610.414 409.291,610.914 409.5,611.5C 408.349,612.731 407.183,612.731 406,611.5C 405.957,614.217 404.957,614.884 403,613.5C 400.132,614.759 397.299,616.092 394.5,617.5C 393.914,617.291 393.414,616.957 393,616.5C 392,617.833 391,619.167 390,620.5C 389.667,619.833 389.333,619.167 389,618.5C 387.324,619.061 385.991,620.061 385,621.5C 384.667,619.5 384.333,617.5 384,615.5C 383.503,617.81 383.337,620.143 383.5,622.5C 381.833,622.5 380.167,622.5 378.5,622.5C 378.509,624.308 378.009,625.975 377,627.5C 366.64,632.286 356.473,638.119 346.5,645C 344.975,646.009 343.308,646.509 341.5,646.5C 341.719,647.675 341.386,648.675 340.5,649.5C 338.799,649.19 337.132,649.69 335.5,651C 330.041,655.222 324.875,659.056 320,662.5C 312.484,667.002 304.984,673.002 297.5,680.5C 298.641,681.425 298.641,682.259 297.5,683C 298,683.167 298.5,683.333 299,683.5C 301.38,681.114 303.547,678.447 305.5,675.5C 305.689,679.522 307.023,679.522 309.5,675.5C 310.723,674.386 312.056,674.219 313.5,675C 312.663,676.011 312.33,677.178 312.5,678.5C 292.282,694.045 272.949,710.712 254.5,728.5C 254.39,725.941 255.056,723.608 256.5,721.5C 259.349,718.484 262.349,715.65 265.5,713C 265.043,712.586 264.709,712.086 264.5,711.5C 266.124,710.131 266.624,708.464 266,706.5C 246.296,723.705 227.796,742.038 210.5,761.5C 208.459,762.236 206.459,763.069 204.5,764C 203.663,765.011 203.33,766.178 203.5,767.5C 205.604,767.201 207.604,767.534 209.5,768.5C 206.296,769.204 203.129,769.87 200,770.5C 199.667,769.833 199.333,769.167 199,768.5C 198.871,771.003 197.871,773.003 196,774.5C 195.124,769.32 193.791,764.32 192,759.5C 191.506,761.134 191.34,762.801 191.5,764.5C 186.639,764.063 181.972,764.563 177.5,766C 178,766.5 178.5,767 179,767.5C 183.066,766.536 187.233,766.203 191.5,766.5C 191.5,768.167 191.5,769.833 191.5,771.5C 183.953,770.92 176.453,770.253 169,769.5C 168.439,770.022 167.772,770.355 167,770.5C 163.141,770.049 159.474,769.049 156,767.5C 154.913,769.932 154.413,769.598 154.5,766.5C 189.544,663.733 238.71,568.733 302,481.5C 407.963,346.555 544.129,256.722 710.5,212C 744.057,203.322 778.057,197.155 812.5,193.5C 817.731,193.556 822.731,192.889 827.5,191.5C 838.112,190.091 848.778,189.425 859.5,189.5C 886.167,189.5 912.833,189.5 939.5,189.5C 1062.96,189.578 1183.63,207.745 1301.5,244C 1322.83,251.491 1344.16,258.658 1365.5,265.5C 1387.1,214.964 1409.27,164.631 1432,114.5C 1472.37,60.2005 1519.87,53.0339 1574.5,93C 1577.33,95.8333 1580.17,98.6667 1583,101.5C 1682.31,272.769 1781.64,444.102 1881,615.5C 1892.57,635.694 1896.57,657.361 1893,680.5C 1892.43,692.034 1889.09,702.701 1883,712.5C 1876.83,720 1870,726.833 1862.5,733C 1854.16,737.837 1846.16,743.17 1838.5,749C 1832.34,751.996 1826.01,754.496 1819.5,756.5 Z"/></g>
<g><path style="opacity:0.932" fill="#4525b8" d="M 1151.5,605.5 C 1123.22,596.019 1094.89,587.019 1066.5,578.5C 1070.15,576.768 1073.31,577.435 1076,580.5C 1077,580.167 1078,579.833 1079,579.5C 1082.31,580.944 1085.81,581.944 1089.5,582.5C 1088.49,583.396 1088.49,584.062 1089.5,584.5C 1091.1,583.515 1092.76,583.349 1094.5,584C 1095.83,584.667 1095.83,585.333 1094.5,586C 1095,586.167 1095.5,586.333 1096,586.5C 1099.48,585.041 1101.64,585.707 1102.5,588.5C 1104.43,587.48 1106.43,587.313 1108.5,588C 1110.29,589.163 1112.29,589.83 1114.5,590C 1115.83,590.667 1115.83,591.333 1114.5,592C 1117.21,592.236 1119.71,593.069 1122,594.5C 1122.77,594.355 1123.44,594.022 1124,593.5C 1132.04,597.452 1140.54,600.285 1149.5,602C 1150.31,603.113 1150.97,604.279 1151.5,605.5 Z"/></g>
<g><path style="opacity:0.993" fill="#4d2acd" d="M 573.5,552.5 C 495.993,575.417 422.659,607.917 353.5,650C 339.455,659.017 325.789,668.517 312.5,678.5C 312.33,677.178 312.663,676.011 313.5,675C 312.056,674.219 310.723,674.386 309.5,675.5C 307.023,679.522 305.689,679.522 305.5,675.5C 303.547,678.447 301.38,681.114 299,683.5C 298.5,683.333 298,683.167 297.5,683C 298.641,682.259 298.641,681.425 297.5,680.5C 304.984,673.002 312.484,667.002 320,662.5C 324.875,659.056 330.041,655.222 335.5,651C 337.132,649.69 338.799,649.19 340.5,649.5C 341.386,648.675 341.719,647.675 341.5,646.5C 343.308,646.509 344.975,646.009 346.5,645C 356.473,638.119 366.64,632.286 377,627.5C 378.009,625.975 378.509,624.308 378.5,622.5C 380.167,622.5 381.833,622.5 383.5,622.5C 383.337,620.143 383.503,617.81 384,615.5C 384.333,617.5 384.667,619.5 385,621.5C 385.991,620.061 387.324,619.061 389,618.5C 389.333,619.167 389.667,619.833 390,620.5C 391,619.167 392,617.833 393,616.5C 393.414,616.957 393.914,617.291 394.5,617.5C 397.299,616.092 400.132,614.759 403,613.5C 404.957,614.884 405.957,614.217 406,611.5C 407.183,612.731 408.349,612.731 409.5,611.5C 409.291,610.914 408.957,610.414 408.5,610C 409.899,609.405 411.232,609.572 412.5,610.5C 413.167,609.5 413.833,608.5 414.5,607.5C 416.62,608.872 417.62,608.205 417.5,605.5C 418.822,605.33 419.989,605.663 421,606.5C 421.617,605.551 421.451,604.718 420.5,604C 428.102,601.163 435.269,597.663 442,593.5C 443.667,593.833 445.333,594.167 447,594.5C 447.915,593.672 448.581,592.672 449,591.5C 450.751,592.809 452.251,592.475 453.5,590.5C 454.768,591.428 456.101,591.595 457.5,591C 462.098,586.006 467.765,582.673 474.5,581C 472.833,580.667 471.167,580.333 469.5,580C 474.658,579.281 479.658,577.948 484.5,576C 483.5,575.667 482.5,575.333 481.5,575C 484.386,573.369 487.886,572.202 492,571.5C 495.003,573.165 497.336,572.498 499,569.5C 499.561,570.022 500.228,570.355 501,570.5C 505.686,568.464 510.352,566.464 515,564.5C 515.333,564.833 515.667,565.167 516,565.5C 524.098,561.678 532.932,558.511 542.5,556C 543.333,555.167 544.167,554.333 545,553.5C 547.776,555.14 549.776,554.473 551,551.5C 553.621,553.019 555.788,552.519 557.5,550C 561.457,550.396 564.29,548.896 566,545.5C 567.11,547.037 568.61,547.703 570.5,547.5C 570.5,549.167 570.5,550.833 570.5,552.5C 571.5,552.5 572.5,552.5 573.5,552.5 Z"/></g>
<g><path style="opacity:0.999" fill="#4c2bcf" d="M 254.5,728.5 C 208.165,773.307 167.665,822.64 133,876.5C 125.99,883.19 120.99,891.19 118,900.5C 126.429,854.781 138.596,810.114 154.5,766.5C 154.413,769.598 154.913,769.932 156,767.5C 159.474,769.049 163.141,770.049 167,770.5C 167.772,770.355 168.439,770.022 169,769.5C 176.453,770.253 183.953,770.92 191.5,771.5C 191.5,769.833 191.5,768.167 191.5,766.5C 187.233,766.203 183.066,766.536 179,767.5C 178.5,767 178,766.5 177.5,766C 181.972,764.563 186.639,764.063 191.5,764.5C 191.34,762.801 191.506,761.134 192,759.5C 193.791,764.32 195.124,769.32 196,774.5C 197.871,773.003 198.871,771.003 199,768.5C 199.333,769.167 199.667,769.833 200,770.5C 203.129,769.87 206.296,769.204 209.5,768.5C 207.604,767.534 205.604,767.201 203.5,767.5C 203.33,766.178 203.663,765.011 204.5,764C 206.459,763.069 208.459,762.236 210.5,761.5C 227.796,742.038 246.296,723.705 266,706.5C 266.624,708.464 266.124,710.131 264.5,711.5C 264.709,712.086 265.043,712.586 265.5,713C 262.349,715.65 259.349,718.484 256.5,721.5C 255.056,723.608 254.39,725.941 254.5,728.5 Z"/></g>
<g><path style="opacity:0.992" fill="#4a29cc" d="M 1819.5,756.5 C 1817.35,758.746 1814.68,760.246 1811.5,761C 1629.79,802.875 1448.12,844.875 1266.5,887C 1244.67,891.671 1222.67,892.671 1200.5,890C 1183.78,886.203 1167.44,881.203 1151.5,875C 1134.72,863.292 1125.22,847.125 1123,826.5C 1121.57,810.255 1122.91,794.255 1127,778.5C 1128.7,775.98 1130.53,773.647 1132.5,771.5C 1132.15,773.541 1132.15,775.374 1132.5,777C 1131.33,777.419 1130.33,778.085 1129.5,779C 1131.76,782.785 1131.59,786.285 1129,789.5C 1128.67,788.833 1128.33,788.167 1128,787.5C 1126.51,796.593 1125.67,805.76 1125.5,815C 1125.12,822.436 1126.29,829.602 1129,836.5C 1128.28,830.499 1128.61,824.499 1130,818.5C 1131.47,817.619 1132.3,816.286 1132.5,814.5C 1133.15,809.851 1133.65,805.184 1134,800.5C 1134.31,799.692 1134.81,799.025 1135.5,798.5C 1136.33,806.493 1136.5,814.493 1136,822.5C 1138.24,826.9 1139.74,831.233 1140.5,835.5C 1139.91,836.799 1138.91,837.632 1137.5,838C 1138.46,839.419 1139.29,840.919 1140,842.5C 1140.89,841.289 1141.73,841.289 1142.5,842.5C 1140.6,843.9 1139.27,845.733 1138.5,848C 1141.28,850.894 1144.28,853.56 1147.5,856C 1148.74,856.456 1149.58,855.956 1150,854.5C 1150.33,855.833 1150.67,857.167 1151,858.5C 1151.67,847.833 1152.33,847.833 1153,858.5C 1153.33,857.833 1153.67,857.167 1154,856.5C 1155.23,861.085 1155.73,865.752 1155.5,870.5C 1156.5,870.5 1157.5,870.5 1158.5,870.5C 1157.85,869.15 1157.18,867.817 1156.5,866.5C 1157.19,860.853 1157.69,855.186 1158,849.5C 1158.69,851.722 1159.53,853.889 1160.5,856C 1159.42,860.458 1159.25,864.958 1160,869.5C 1160.33,868.5 1160.67,867.5 1161,866.5C 1161.33,866.833 1161.67,867.167 1162,867.5C 1164.67,868.98 1164.83,870.48 1162.5,872C 1175.32,878.736 1188.98,882.903 1203.5,884.5C 1207.55,882.591 1211.05,883.257 1214,886.5C 1214.96,885.421 1215.79,884.255 1216.5,883C 1215.06,882.781 1213.73,882.281 1212.5,881.5C 1212.83,881.167 1213.17,880.833 1213.5,880.5C 1219.72,882.701 1226.05,883.035 1232.5,881.5C 1235.07,883.196 1237.9,884.196 1241,884.5C 1252.07,882.484 1263.07,880.15 1274,877.5C 1275.9,877.615 1277.56,878.282 1279,879.5C 1279.9,878.299 1281.07,877.465 1282.5,877C 1287.44,875.159 1292.44,873.492 1297.5,872C 1300.05,871.34 1302.55,871.507 1305,872.5C 1306.65,872.18 1307.65,871.18 1308,869.5C 1309.73,870.576 1311.56,870.743 1313.5,870C 1316.17,869.333 1316.17,868.667 1313.5,868C 1319.46,867.882 1325.12,866.715 1330.5,864.5C 1331.83,863.5 1333.17,862.5 1334.5,861.5C 1335.17,862.167 1335.83,862.833 1336.5,863.5C 1338.69,861.15 1341.19,859.15 1344,857.5C 1344.96,858.579 1345.79,859.745 1346.5,861C 1347.5,861.667 1348.5,861.667 1349.5,861C 1350.27,858.595 1350.77,856.095 1351,853.5C 1351.5,855.473 1351.66,857.473 1351.5,859.5C 1361.02,857.848 1370.52,855.848 1380,853.5C 1380.87,853.735 1381.71,854.069 1382.5,854.5C 1384.27,853.965 1384.6,853.131 1383.5,852C 1427.71,842.643 1471.71,832.476 1515.5,821.5C 1517.47,822.331 1519.47,822.498 1521.5,822C 1522.16,820.668 1523.33,819.502 1525,818.5C 1526,818.833 1527,819.167 1528,819.5C 1530.56,816.994 1533.23,814.66 1536,812.5C 1540.98,818.099 1543.31,817.099 1543,809.5C 1543.5,811.473 1543.66,813.473 1543.5,815.5C 1567.77,809.92 1592.1,804.42 1616.5,799C 1619.76,795.763 1622.76,796.097 1625.5,800C 1624.38,800.249 1623.38,800.749 1622.5,801.5C 1624.05,802.452 1625.71,802.785 1627.5,802.5C 1627.36,800.738 1627.69,799.071 1628.5,797.5C 1630.86,796.729 1633.2,795.895 1635.5,795C 1635.17,794.667 1634.83,794.333 1634.5,794C 1637.17,793.667 1639.83,793.333 1642.5,793C 1643,792.5 1643.5,792 1644,791.5C 1646.23,791.374 1648.57,791.707 1651,792.5C 1653.73,791.638 1653.9,790.805 1651.5,790C 1653.71,789.374 1655.88,789.541 1658,790.5C 1659.22,790.138 1660.39,789.638 1661.5,789C 1661.17,788.667 1660.83,788.333 1660.5,788C 1663.83,787.667 1667.17,787.333 1670.5,787C 1671.84,784.598 1673.84,784.432 1676.5,786.5C 1680.81,784.642 1681.14,783.975 1677.5,784.5C 1676.3,784.154 1676.3,783.654 1677.5,783C 1680.77,782.803 1683.44,783.136 1685.5,784C 1686.17,783.667 1686.83,783.333 1687.5,783C 1686.33,782.581 1685.33,781.915 1684.5,781C 1688.54,780.126 1692.54,779.126 1696.5,778C 1698.44,777.257 1700.27,777.424 1702,778.5C 1704.8,775.887 1707.63,775.887 1710.5,778.5C 1712.39,777.391 1714.39,776.557 1716.5,776C 1658.83,775.667 1601.17,775.333 1543.5,775C 1543.83,774.667 1544.17,774.333 1544.5,774C 1603.17,773.667 1661.83,773.333 1720.5,773C 1712.5,772.667 1704.5,772.333 1696.5,772C 1706.83,771.5 1717.16,771.334 1727.5,771.5C 1727.5,770.167 1727.5,768.833 1727.5,767.5C 1728.5,767.5 1729.5,767.5 1730.5,767.5C 1730.86,773.704 1732.36,774.037 1735,768.5C 1739.08,770.934 1743.25,770.768 1747.5,768C 1746.83,767.667 1746.17,767.333 1745.5,767C 1746.61,766.362 1747.78,765.862 1749,765.5C 1753.1,766.401 1753.27,767.234 1749.5,768C 1751.08,768.707 1752.58,769.54 1754,770.5C 1755.65,769.283 1757.48,768.45 1759.5,768C 1757.5,767.667 1755.5,767.333 1753.5,767C 1755.78,763.868 1758.28,763.701 1761,766.5C 1766.62,765.244 1772.12,763.577 1777.5,761.5C 1778.17,761.833 1778.83,762.167 1779.5,762.5C 1782.43,760.083 1785.6,759.416 1789,760.5C 1790.88,758.98 1793.05,757.98 1795.5,757.5C 1798.11,758.034 1800.61,757.367 1803,755.5C 1808.55,756.876 1814.05,757.209 1819.5,756.5 Z"/></g>
<g><path style="opacity:0.091" fill="#07030e" d="M 1929.5,1103.5 C 1930.5,1103.41 1931.33,1103.75 1932,1104.5C 1932.67,1108.5 1932.67,1112.5 1932,1116.5C 1916.67,1197.87 1892.67,1276.87 1860,1353.5C 1849.45,1375.27 1839.45,1397.27 1830,1419.5C 1736.63,1607.55 1591.13,1736.38 1393.5,1806C 1343.29,1822.13 1292.29,1833.46 1240.5,1840C 1225.18,1841.54 1209.85,1842.87 1194.5,1844C 1147.69,1844.6 1101.03,1845.26 1054.5,1846C 932.859,1842.18 814.192,1820.34 698.5,1780.5C 679.994,1828.03 660.994,1875.37 641.5,1922.5C 629.859,1944.97 612.526,1961.47 589.5,1972C 578.511,1975.19 567.344,1977.35 556,1978.5C 547.121,1977.3 538.288,1975.8 529.5,1974C 515.303,1968.23 501.636,1961.4 488.5,1953.5C 483.412,1949.08 479.079,1944.08 475.5,1938.5C 373.84,1769.84 271.673,1601.51 169,1433.5C 152.631,1405.1 149.964,1375.43 161,1344.5C 163.604,1339.18 166.771,1334.18 170.5,1329.5C 181.506,1316.98 193.839,1306.15 207.5,1297C 212.938,1294.07 218.604,1291.57 224.5,1289.5C 230.773,1287.42 235.773,1289.09 239.5,1294.5C 424.019,1246.37 608.686,1198.54 793.5,1151C 802.932,1150.32 812.266,1149.49 821.5,1148.5C 831.861,1149.21 842.195,1150.21 852.5,1151.5C 866.68,1154.99 881.013,1158.16 895.5,1161C 903.77,1164.59 910.603,1170.09 916,1177.5C 920.792,1189.04 925.292,1200.71 929.5,1212.5C 931.768,1230.87 930.435,1248.87 925.5,1266.5C 903.448,1315.52 881.948,1364.85 861,1414.5C 860.51,1415.79 860.343,1417.13 860.5,1418.5C 982.262,1461.8 1107.26,1488.3 1235.5,1498C 1300.41,1499.88 1364.74,1495.88 1428.5,1486C 1528.02,1464.77 1620.35,1425.44 1705.5,1368C 1725.88,1354.13 1745.54,1339.29 1764.5,1323.5C 1814.66,1276.88 1857.83,1224.88 1894,1167.5C 1902.83,1151.84 1912.16,1136.51 1922,1121.5C 1924.22,1115.4 1926.72,1109.4 1929.5,1103.5 Z"/></g>
<g><path style="opacity:1" fill="#4e2cd3" d="M 1729.5,1570.5 C 1729.81,1568.77 1729.98,1567.11 1730,1565.5C 1729.09,1566.33 1728.42,1567.33 1728,1568.5C 1727.67,1566.83 1727.33,1565.17 1727,1563.5C 1726.11,1564.71 1725.27,1564.71 1724.5,1563.5C 1724.83,1562.5 1725.5,1561.83 1726.5,1561.5C 1727.5,1555.54 1727.83,1549.54 1727.5,1543.5C 1666.83,1543.17 1606.16,1543.5 1545.5,1544.5C 1545.71,1545.09 1546.04,1545.59 1546.5,1546C 1545.34,1548.31 1544.51,1550.81 1544,1553.5C 1543.13,1552.13 1542.63,1550.63 1542.5,1549C 1543.22,1546.21 1543.55,1543.37 1543.5,1540.5C 1590.34,1540.43 1636.84,1540.43 1683,1540.5C 1687.51,1538.89 1693.51,1538.22 1701,1538.5C 1705.5,1538.67 1710,1538.83 1714.5,1539C 1706.5,1539.33 1698.5,1539.67 1690.5,1540C 1703.25,1539.86 1715.75,1540.7 1728,1542.5C 1728.67,1539.83 1729.33,1539.83 1730,1542.5C 1732.28,1536.87 1731.28,1531.54 1727,1526.5C 1725.51,1527.25 1725.35,1528.09 1726.5,1529C 1724.89,1529.72 1723.39,1529.55 1722,1528.5C 1721.67,1529.17 1721.33,1529.83 1721,1530.5C 1719.28,1530.59 1717.45,1530.26 1715.5,1529.5C 1712,1531.24 1708.5,1532.91 1705,1534.5C 1702.18,1535.13 1699.52,1534.46 1697,1532.5C 1695.93,1533.19 1694.77,1533.69 1693.5,1534C 1683.5,1534.17 1673.5,1534.33 1663.5,1534.5C 1634.83,1534.21 1606.16,1534.21 1577.5,1534.5C 1568.15,1533.14 1558.82,1532.48 1549.5,1532.5C 1549.66,1531.13 1549.49,1529.79 1549,1528.5C 1545.02,1526.92 1544.68,1524.92 1548,1522.5C 1549.64,1523.85 1551.14,1523.68 1552.5,1522C 1551.09,1519.62 1549.92,1517.12 1549,1514.5C 1548.67,1516.5 1548.33,1518.5 1548,1520.5C 1546.95,1515.91 1546.11,1511.24 1545.5,1506.5C 1544.52,1506.02 1543.69,1505.36 1543,1504.5C 1542.24,1513.3 1542.41,1521.96 1543.5,1530.5C 1542.92,1532.55 1541.59,1533.55 1539.5,1533.5C 1540.24,1526.67 1540.08,1520 1539,1513.5C 1538.75,1516.89 1538.25,1520.22 1537.5,1523.5C 1538.76,1525.58 1538.59,1527.58 1537,1529.5C 1534.67,1526.5 1533,1526.83 1532,1530.5C 1530.69,1528.11 1529.69,1528.11 1529,1530.5C 1527.63,1530.76 1526.13,1530.42 1524.5,1529.5C 1520.32,1532.52 1515.82,1533.52 1511,1532.5C 1504.24,1533.6 1497.58,1534.6 1491,1535.5C 1479.33,1534.83 1467.67,1534.17 1456,1533.5C 1449.67,1534.83 1443.33,1534.83 1437,1533.5C 1434.67,1534.17 1432.33,1534.83 1430,1535.5C 1420.79,1535.28 1411.12,1534.61 1401,1533.5C 1394.48,1534.63 1387.31,1534.3 1379.5,1532.5C 1375.33,1532.73 1371.17,1533.06 1367,1533.5C 1363.56,1533.15 1360.23,1532.48 1357,1531.5C 1356.67,1531.83 1356.33,1532.17 1356,1532.5C 1356.98,1530.72 1356.65,1529.05 1355,1527.5C 1353.85,1528.46 1352.85,1528.12 1352,1526.5C 1349.99,1536.86 1348.32,1536.86 1347,1526.5C 1346.52,1527.45 1346.35,1528.45 1346.5,1529.5C 1343.95,1529.39 1341.62,1530.05 1339.5,1531.5C 1339.17,1530.83 1338.83,1530.17 1338.5,1529.5C 1333.59,1529.81 1328.59,1530.81 1323.5,1532.5C 1320.77,1531.02 1318.27,1531.35 1316,1533.5C 1297.15,1531.29 1278.15,1531.29 1259,1533.5C 1233.64,1532.38 1208.3,1532.38 1183,1533.5C 1180.73,1531.57 1178.73,1531.57 1177,1533.5C 1173.35,1533.1 1169.52,1532.27 1165.5,1531C 1166.5,1530.67 1167.5,1530.33 1168.5,1530C 1165.06,1529.78 1162.39,1528.28 1160.5,1525.5C 1159.76,1526.99 1159.09,1528.49 1158.5,1530C 1158.65,1531.97 1158.98,1533.97 1159.5,1536C 1158.58,1536.37 1157.75,1536.87 1157,1537.5C 1155.97,1532.22 1155.31,1526.88 1155,1521.5C 1153.51,1523.11 1153.34,1524.78 1154.5,1526.5C 1153.65,1529.61 1152.48,1529.95 1151,1527.5C 1150.33,1529.5 1149,1530.83 1147,1531.5C 1146.67,1530.83 1146.33,1530.17 1146,1529.5C 1143.99,1529.52 1141.99,1529.52 1140,1529.5C 1136.59,1531.39 1133.09,1533.06 1129.5,1534.5C 1127.53,1531.88 1126.03,1532.21 1125,1535.5C 1122.33,1531.5 1119.67,1531.5 1117,1535.5C 1075.72,1534.82 1033.88,1534.32 991.5,1534C 989.782,1533.65 988.115,1533.15 986.5,1532.5C 982.386,1533.78 978.053,1533.45 973.5,1531.5C 974.025,1530.81 974.692,1530.31 975.5,1530C 972.958,1529.45 970.958,1528.12 969.5,1526C 970.098,1522.63 971.265,1522.13 973,1524.5C 974.714,1523.07 976.047,1523.41 977,1525.5C 977.309,1524.23 977.809,1523.07 978.5,1522C 977.167,1521.67 975.833,1521.33 974.5,1521C 975.15,1519.39 974.65,1517.89 973,1516.5C 972.361,1519.23 971.194,1519.73 969.5,1518C 969.94,1513.99 970.273,1509.99 970.5,1506C 969.251,1504.18 968.085,1504.34 967,1506.5C 966.392,1515.01 966.558,1523.34 967.5,1531.5C 966.653,1532.84 965.487,1533.84 964,1534.5C 963.667,1527.5 963.333,1520.5 963,1513.5C 962.793,1517.09 962.293,1520.59 961.5,1524C 962.022,1524.56 962.355,1525.23 962.5,1526C 961.419,1527.37 960.585,1528.87 960,1530.5C 959.667,1529.17 959.333,1527.83 959,1526.5C 957.54,1528.42 955.873,1529.09 954,1528.5C 953.667,1529.5 953.333,1530.5 953,1531.5C 951.215,1530.76 949.382,1530.09 947.5,1529.5C 943.32,1532 938.82,1533.67 934,1534.5C 915.777,1534.24 897.11,1533.91 878,1533.5C 853.863,1534.17 829.696,1534.84 805.5,1535.5C 797.724,1533.03 789.724,1532.03 781.5,1532.5C 781.66,1530.8 781.494,1529.13 781,1527.5C 780.667,1527.83 780.333,1528.17 780,1528.5C 776.385,1524.71 777.385,1522.71 783,1522.5C 782.973,1523.79 783.973,1524.79 786,1525.5C 786.779,1523.09 785.946,1521.43 783.5,1520.5C 782.975,1518.01 782.142,1515.68 781,1513.5C 780.383,1514.45 780.549,1515.28 781.5,1516C 780.953,1516.92 780.287,1517.76 779.5,1518.5C 778.77,1516.66 778.103,1514.83 777.5,1513C 778.293,1510.57 778.626,1508.23 778.5,1506C 777.5,1502.67 776.5,1502.67 775.5,1506C 775.957,1506.41 776.291,1506.91 776.5,1507.5C 775.559,1507.49 774.892,1507.99 774.5,1509C 774.313,1516.38 774.647,1523.71 775.5,1531C 774.667,1532.5 773.5,1533.67 772,1534.5C 771.667,1527.5 771.333,1520.5 771,1513.5C 770.667,1518.83 770.333,1524.17 770,1529.5C 769.333,1528.17 768.667,1528.17 768,1529.5C 767.751,1528.38 767.251,1527.38 766.5,1526.5C 765.494,1526.94 765.494,1527.6 766.5,1528.5C 764.902,1530.97 763.402,1530.97 762,1528.5C 760.135,1530.67 757.969,1531.01 755.5,1529.5C 751.865,1533.09 747.699,1534.09 743,1532.5C 741.601,1533.23 740.101,1533.73 738.5,1534C 704.195,1534.21 670.028,1534.38 636,1534.5C 626.167,1534.33 616.333,1534.17 606.5,1534C 604.863,1533.4 603.197,1532.9 601.5,1532.5C 599.07,1534.47 596.57,1534.14 594,1531.5C 592.506,1532.75 591.006,1532.75 589.5,1531.5C 590.025,1530.81 590.692,1530.31 591.5,1530C 589.359,1528.69 587.359,1527.19 585.5,1525.5C 585.846,1524.3 586.346,1524.3 587,1525.5C 586.923,1524.26 587.089,1523.26 587.5,1522.5C 589.5,1523.5 591.5,1524.5 593.5,1525.5C 594.308,1525.19 594.975,1524.69 595.5,1524C 594.636,1522.3 593.303,1521.14 591.5,1520.5C 590.117,1517.45 589.617,1514.45 590,1511.5C 589.147,1513.94 588.147,1516.27 587,1518.5C 586.828,1514.13 586.328,1509.8 585.5,1505.5C 584.749,1506.38 584.249,1507.38 584,1508.5C 583.667,1508.17 583.333,1507.83 583,1507.5C 582.404,1515.68 582.571,1523.68 583.5,1531.5C 582.653,1532.84 581.487,1533.84 580,1534.5C 579.667,1527.83 579.333,1521.17 579,1514.5C 578.667,1519.5 578.333,1524.5 578,1529.5C 577.333,1528.17 576.667,1528.17 576,1529.5C 575.751,1528.38 575.251,1527.38 574.5,1526.5C 573.494,1526.94 573.494,1527.6 574.5,1528.5C 572.902,1530.97 571.402,1530.97 570,1528.5C 568.135,1530.67 565.969,1531.01 563.5,1529.5C 559.865,1533.09 555.699,1534.09 551,1532.5C 549.601,1533.23 548.101,1533.73 546.5,1534C 512.195,1534.21 478.028,1534.38 444,1534.5C 434.167,1534.33 424.333,1534.17 414.5,1534C 412.863,1533.4 411.197,1532.9 409.5,1532.5C 407.07,1534.47 404.57,1534.14 402,1531.5C 400.506,1532.75 399.006,1532.75 397.5,1531.5C 398.025,1530.81 398.692,1530.31 399.5,1530C 397.359,1528.69 395.359,1527.19 393.5,1525.5C 393.846,1524.3 394.346,1524.3 395,1525.5C 394.923,1524.26 395.089,1523.26 395.5,1522.5C 397.5,1523.5 399.5,1524.5 401.5,1525.5C 402.308,1525.19 402.975,1524.69 403.5,1524C 402.636,1522.3 401.303,1521.14 399.5,1520.5C 398.117,1517.45 397.617,1514.45 398,1511.5C 397.147,1513.94 396.147,1516.27 395,1518.5C 394.828,1514.13 394.328,1509.8 393.5,1505.5C 392.749,1506.38 392.249,1507.38 392,1508.5C 391.667,1508.17 391.333,1507.83 391,1507.5C 390.39,1515.56 390.556,1523.39 391.5,1531C 390.993,1533.34 389.826,1533.84 388,1532.5C 387.667,1526.5 387.333,1520.5 387,1514.5C 386.667,1518.83 386.333,1523.17 386,1527.5C 384.309,1530.13 383.142,1529.8 382.5,1526.5C 381.289,1527.27 381.289,1528.11 382.5,1529C 380.273,1529.12 378.44,1529.95 377,1531.5C 376.667,1530.83 376.333,1530.17 376,1529.5C 374.542,1530.75 373.042,1530.75 371.5,1529.5C 367.802,1532.29 363.969,1533.95 360,1534.5C 325.564,1534.81 291.898,1534.81 259,1534.5C 253.4,1535.15 247.9,1535.81 242.5,1536.5C 240.767,1535.99 240.434,1535.16 241.5,1534C 236.721,1523.56 230.721,1513.89 223.5,1505C 223.833,1504.67 224.167,1504.33 224.5,1504C 220.347,1499.1 217.013,1493.6 214.5,1487.5C 211.312,1482.22 207.645,1477.22 203.5,1472.5C 200.081,1460.45 198.581,1448.12 199,1435.5C 198.667,1443.83 198.333,1452.17 198,1460.5C 196.553,1458.6 194.886,1456.93 193,1455.5C 192.667,1453.17 192.333,1450.83 192,1448.5C 191.667,1449.17 191.333,1449.83 191,1450.5C 190.548,1447.85 189.714,1445.35 188.5,1443C 189.629,1438.92 189.796,1434.75 189,1430.5C 187.549,1432.99 187.382,1435.32 188.5,1437.5C 188.154,1438.7 187.654,1438.7 187,1437.5C 186.667,1438.83 186.333,1440.17 186,1441.5C 184.237,1436.96 181.737,1432.96 178.5,1429.5C 181.342,1429 182.675,1427.33 182.5,1424.5C 180.641,1424.54 179.308,1423.71 178.5,1422C 179.167,1421.67 179.833,1421.33 180.5,1421C 179.204,1418.24 178.037,1415.41 177,1412.5C 176.282,1413.45 175.449,1413.62 174.5,1413C 176.891,1410.27 176.891,1407.6 174.5,1405C 174.957,1404.59 175.291,1404.09 175.5,1403.5C 173.848,1400.08 173.015,1396.42 173,1392.5C 171.243,1389.99 169.743,1387.32 168.5,1384.5C 166.987,1386.54 166.321,1388.87 166.5,1391.5C 166.913,1394.23 167.58,1396.9 168.5,1399.5C 168.292,1401.85 167.125,1403.52 165,1404.5C 164.867,1401.59 163.7,1399.25 161.5,1397.5C 160.09,1392.95 159.423,1388.28 159.5,1383.5C 160.355,1374.73 160.355,1366.06 159.5,1357.5C 161.21,1349.53 164.377,1342.2 169,1335.5C 177.015,1327.65 184.848,1319.65 192.5,1311.5C 203.519,1301.74 216.019,1294.4 230,1289.5C 232.379,1292.54 235.379,1294.87 239,1296.5C 426.012,1247.62 613.179,1199.46 800.5,1152C 813.5,1151.33 826.5,1151.33 839.5,1152C 857.218,1155.34 874.884,1159.01 892.5,1163C 901.118,1166.62 908.284,1172.12 914,1179.5C 928.341,1206.06 931.674,1234.06 924,1263.5C 901.411,1315.09 878.911,1366.76 856.5,1418.5C 856.709,1419.09 857.043,1419.59 857.5,1420C 975.186,1462.18 1096.52,1488.51 1221.5,1499C 1418.47,1512.44 1594.47,1459.1 1749.5,1339C 1791.91,1303.26 1829.41,1263.09 1862,1218.5C 1879.84,1194.15 1896.17,1168.82 1911,1142.5C 1918.62,1132.25 1924.96,1121.25 1930,1109.5C 1915.11,1195.5 1890.11,1278.5 1855,1358.5C 1837.89,1397.39 1819.22,1435.39 1799,1472.5C 1778.69,1507.29 1755.52,1539.96 1729.5,1570.5 Z"/></g>
<g><path style="opacity:0.999" fill="#4c29cd" d="M 159.5,1357.5 C 160.355,1366.06 160.355,1374.73 159.5,1383.5C 159.423,1388.28 160.09,1392.95 161.5,1397.5C 163.7,1399.25 164.867,1401.59 165,1404.5C 167.125,1403.52 168.292,1401.85 168.5,1399.5C 167.58,1396.9 166.913,1394.23 166.5,1391.5C 166.321,1388.87 166.987,1386.54 168.5,1384.5C 169.743,1387.32 171.243,1389.99 173,1392.5C 173.015,1396.42 173.848,1400.08 175.5,1403.5C 175.291,1404.09 174.957,1404.59 174.5,1405C 176.891,1407.6 176.891,1410.27 174.5,1413C 175.449,1413.62 176.282,1413.45 177,1412.5C 178.037,1415.41 179.204,1418.24 180.5,1421C 179.833,1421.33 179.167,1421.67 178.5,1422C 179.308,1423.71 180.641,1424.54 182.5,1424.5C 182.675,1427.33 181.342,1429 178.5,1429.5C 181.737,1432.96 184.237,1436.96 186,1441.5C 186.333,1440.17 186.667,1438.83 187,1437.5C 187.654,1438.7 188.154,1438.7 188.5,1437.5C 187.382,1435.32 187.549,1432.99 189,1430.5C 189.796,1434.75 189.629,1438.92 188.5,1443C 189.714,1445.35 190.548,1447.85 191,1450.5C 191.333,1449.83 191.667,1449.17 192,1448.5C 192.333,1450.83 192.667,1453.17 193,1455.5C 194.886,1456.93 196.553,1458.6 198,1460.5C 198.333,1452.17 198.667,1443.83 199,1435.5C 198.581,1448.12 200.081,1460.45 203.5,1472.5C 207.645,1477.22 211.312,1482.22 214.5,1487.5C 217.013,1493.6 220.347,1499.1 224.5,1504C 224.167,1504.33 223.833,1504.67 223.5,1505C 230.721,1513.89 236.721,1523.56 241.5,1534C 240.434,1535.16 240.767,1535.99 242.5,1536.5C 244.309,1538.72 246.476,1539.38 249,1538.5C 251.135,1539.13 253.302,1539.63 255.5,1540C 254.5,1540.33 253.5,1540.67 252.5,1541C 253.938,1541.22 255.271,1541.72 256.5,1542.5C 253.553,1543.32 250.553,1543.82 247.5,1544C 249.904,1544.51 250.571,1545.67 249.5,1547.5C 282.28,1599.55 313.947,1651.38 344.5,1703C 349.025,1710.87 353.691,1718.04 358.5,1724.5C 357.287,1726.85 357.953,1728.68 360.5,1730C 365.489,1730.75 370.489,1731.42 375.5,1732C 373.5,1732.33 371.5,1732.67 369.5,1733C 370.624,1733.25 371.624,1733.75 372.5,1734.5C 370.234,1735.31 367.9,1735.81 365.5,1736C 369.222,1742.62 373.055,1749.12 377,1755.5C 377.5,1753.67 378.667,1752.5 380.5,1752C 378.098,1750.53 378.264,1749.03 381,1747.5C 383.088,1751.47 382.921,1755.31 380.5,1759C 382.592,1759.95 382.925,1761.29 381.5,1763C 382.191,1764.07 382.691,1765.23 383,1766.5C 383.333,1765.5 383.667,1764.5 384,1763.5C 384.333,1766.17 384.667,1768.83 385,1771.5C 386.883,1772.65 387.716,1774.32 387.5,1776.5C 388.5,1776.5 389.5,1776.5 390.5,1776.5C 390.667,1745.84 391.167,1745.84 392,1776.5C 393.533,1782.28 395.533,1787.95 398,1793.5C 402.026,1799.03 406.193,1804.53 410.5,1810C 410.167,1810.33 409.833,1810.67 409.5,1811C 431.538,1846.24 453.205,1881.24 474.5,1916C 473.483,1917.05 473.316,1918.22 474,1919.5C 478.085,1922 482.585,1923.5 487.5,1924C 486.833,1924.33 486.167,1924.67 485.5,1925C 486.938,1925.22 488.271,1925.72 489.5,1926.5C 486.553,1927.32 483.553,1927.82 480.5,1928C 482,1929.5 483.5,1931 485,1932.5C 485.617,1933.45 485.451,1934.28 484.5,1935C 486.964,1937.26 489.631,1939.1 492.5,1940.5C 491.153,1944.11 491.82,1944.44 494.5,1941.5C 496.976,1942.81 498.976,1944.64 500.5,1947C 499.833,1947.67 499.167,1948.33 498.5,1949C 499.833,1950.33 501.167,1951.67 502.5,1953C 513.218,1958.53 524.218,1963.2 535.5,1967C 537.5,1967.67 538.833,1969 539.5,1971C 545.187,1971.38 550.52,1970.21 555.5,1967.5C 560.482,1968.44 565.482,1968.27 570.5,1967C 573.883,1965.62 575.716,1963.12 576,1959.5C 575.775,1962.82 577.108,1965.16 580,1966.5C 581.618,1964.55 582.618,1961.89 583,1958.5C 585.055,1959.93 587.221,1961.26 589.5,1962.5C 592.59,1958.65 596.757,1955.32 602,1952.5C 602.333,1954.05 601.833,1955.38 600.5,1956.5C 601.471,1957.96 601.138,1959.3 599.5,1960.5C 600.325,1961.39 601.325,1961.72 602.5,1961.5C 581.605,1974.93 558.939,1978.76 534.5,1973C 526.504,1970 518.838,1966.5 511.5,1962.5C 506.169,1958.54 500.502,1954.87 494.5,1951.5C 489.167,1945.17 483.833,1938.83 478.5,1932.5C 439.216,1867.81 400.049,1802.81 361,1737.5C 360.292,1738.38 359.458,1739.05 358.5,1739.5C 296.431,1637.49 234.264,1535.49 172,1433.5C 165.027,1421.23 160.027,1408.23 157,1394.5C 156.333,1386.17 156.333,1377.83 157,1369.5C 157.335,1365.26 158.168,1361.26 159.5,1357.5 Z"/></g>
<g><path style="opacity:1" fill="#4e2cd3" d="M 1729.5,1570.5 C 1639.01,1680.46 1526.01,1758.29 1390.5,1804C 1348.07,1817.97 1304.74,1828.14 1260.5,1834.5C 1259.85,1833.19 1258.85,1832.19 1257.5,1831.5C 1232.9,1834.56 1208.56,1836.72 1184.5,1838C 1178.37,1841 1172.04,1841.17 1165.5,1838.5C 1162.3,1840.31 1159.8,1839.65 1158,1836.5C 1156.69,1838.66 1155.02,1838.99 1153,1837.5C 1152.67,1838.17 1152.33,1838.83 1152,1839.5C 1146.25,1838.36 1140.42,1838.19 1134.5,1839C 1132.88,1839.62 1131.55,1840.62 1130.5,1842C 1120.51,1842.5 1110.51,1842.67 1100.5,1842.5C 1105.32,1841.67 1110.32,1841.17 1115.5,1841C 1118.97,1840.35 1121.97,1838.85 1124.5,1836.5C 1120.72,1831.27 1121.72,1826.77 1127.5,1823C 1125.26,1820.97 1123.76,1818.47 1123,1815.5C 1120.63,1818.6 1117.46,1819.93 1113.5,1819.5C 1113.82,1817.28 1113.16,1815.44 1111.5,1814C 1106.28,1811.49 1100.78,1809.99 1095,1809.5C 1086.18,1810.54 1077.68,1812.54 1069.5,1815.5C 1069.72,1816.68 1069.39,1817.68 1068.5,1818.5C 1066.11,1819.09 1064.27,1820.43 1063,1822.5C 1058.94,1820.27 1054.77,1818.27 1050.5,1816.5C 1049.5,1819.11 1049.66,1821.78 1051,1824.5C 1053.26,1826.96 1055.1,1829.63 1056.5,1832.5C 1055.74,1833.72 1054.74,1834.72 1053.5,1835.5C 1055.5,1837.17 1057.5,1838.83 1059.5,1840.5C 1058.05,1841.17 1056.72,1841.84 1055.5,1842.5C 1036.51,1839.95 1017.51,1839.28 998.5,1840.5C 983.416,1840.01 968.416,1838.67 953.5,1836.5C 948.731,1835.11 943.731,1834.44 938.5,1834.5C 930.416,1834.06 922.416,1833.06 914.5,1831.5C 913.909,1830.85 913.243,1830.18 912.5,1829.5C 899.803,1827.17 887.136,1825.5 874.5,1824.5C 815.569,1814.18 757.902,1799.02 701.5,1779C 700.354,1778.36 699.354,1777.52 698.5,1776.5C 678.393,1825.05 658.56,1873.71 639,1922.5C 630.008,1938.49 617.842,1951.49 602.5,1961.5C 601.325,1961.72 600.325,1961.39 599.5,1960.5C 601.138,1959.3 601.471,1957.96 600.5,1956.5C 601.833,1955.38 602.333,1954.05 602,1952.5C 596.757,1955.32 592.59,1958.65 589.5,1962.5C 587.221,1961.26 585.055,1959.93 583,1958.5C 582.618,1961.89 581.618,1964.55 580,1966.5C 577.108,1965.16 575.775,1962.82 576,1959.5C 575.716,1963.12 573.883,1965.62 570.5,1967C 565.482,1968.27 560.482,1968.44 555.5,1967.5C 550.52,1970.21 545.187,1971.38 539.5,1971C 538.833,1969 537.5,1967.67 535.5,1967C 524.218,1963.2 513.218,1958.53 502.5,1953C 501.167,1951.67 499.833,1950.33 498.5,1949C 499.167,1948.33 499.833,1947.67 500.5,1947C 498.976,1944.64 496.976,1942.81 494.5,1941.5C 491.82,1944.44 491.153,1944.11 492.5,1940.5C 489.631,1939.1 486.964,1937.26 484.5,1935C 485.451,1934.28 485.617,1933.45 485,1932.5C 483.5,1931 482,1929.5 480.5,1928C 483.553,1927.82 486.553,1927.32 489.5,1926.5C 488.271,1925.72 486.938,1925.22 485.5,1925C 486.167,1924.67 486.833,1924.33 487.5,1924C 482.585,1923.5 478.085,1922 474,1919.5C 473.316,1918.22 473.483,1917.05 474.5,1916C 453.205,1881.24 431.538,1846.24 409.5,1811C 409.833,1810.67 410.167,1810.33 410.5,1810C 406.193,1804.53 402.026,1799.03 398,1793.5C 395.533,1787.95 393.533,1782.28 392,1776.5C 391.167,1745.84 390.667,1745.84 390.5,1776.5C 389.5,1776.5 388.5,1776.5 387.5,1776.5C 387.716,1774.32 386.883,1772.65 385,1771.5C 384.667,1768.83 384.333,1766.17 384,1763.5C 383.667,1764.5 383.333,1765.5 383,1766.5C 382.691,1765.23 382.191,1764.07 381.5,1763C 382.925,1761.29 382.592,1759.95 380.5,1759C 382.921,1755.31 383.088,1751.47 381,1747.5C 378.264,1749.03 378.098,1750.53 380.5,1752C 378.667,1752.5 377.5,1753.67 377,1755.5C 373.055,1749.12 369.222,1742.62 365.5,1736C 367.9,1735.81 370.234,1735.31 372.5,1734.5C 371.624,1733.75 370.624,1733.25 369.5,1733C 371.5,1732.67 373.5,1732.33 375.5,1732C 370.489,1731.42 365.489,1730.75 360.5,1730C 357.953,1728.68 357.287,1726.85 358.5,1724.5C 353.691,1718.04 349.025,1710.87 344.5,1703C 313.947,1651.38 282.28,1599.55 249.5,1547.5C 250.571,1545.67 249.904,1544.51 247.5,1544C 250.553,1543.82 253.553,1543.32 256.5,1542.5C 255.271,1541.72 253.938,1541.22 252.5,1541C 253.5,1540.67 254.5,1540.33 255.5,1540C 253.302,1539.63 251.135,1539.13 249,1538.5C 246.476,1539.38 244.309,1538.72 242.5,1536.5C 247.9,1535.81 253.4,1535.15 259,1534.5C 291.898,1534.81 325.564,1534.81 360,1534.5C 363.969,1533.95 367.802,1532.29 371.5,1529.5C 373.042,1530.75 374.542,1530.75 376,1529.5C 376.333,1530.17 376.667,1530.83 377,1531.5C 378.44,1529.95 380.273,1529.12 382.5,1529C 381.289,1528.11 381.289,1527.27 382.5,1526.5C 383.142,1529.8 384.309,1530.13 386,1527.5C 386.333,1523.17 386.667,1518.83 387,1514.5C 387.333,1520.5 387.667,1526.5 388,1532.5C 389.826,1533.84 390.993,1533.34 391.5,1531C 390.556,1523.39 390.39,1515.56 391,1507.5C 391.333,1507.83 391.667,1508.17 392,1508.5C 392.249,1507.38 392.749,1506.38 393.5,1505.5C 394.328,1509.8 394.828,1514.13 395,1518.5C 396.147,1516.27 397.147,1513.94 398,1511.5C 397.617,1514.45 398.117,1517.45 399.5,1520.5C 401.303,1521.14 402.636,1522.3 403.5,1524C 402.975,1524.69 402.308,1525.19 401.5,1525.5C 399.5,1524.5 397.5,1523.5 395.5,1522.5C 395.089,1523.26 394.923,1524.26 395,1525.5C 394.346,1524.3 393.846,1524.3 393.5,1525.5C 395.359,1527.19 397.359,1528.69 399.5,1530C 398.692,1530.31 398.025,1530.81 397.5,1531.5C 399.006,1532.75 400.506,1532.75 402,1531.5C 404.57,1534.14 407.07,1534.47 409.5,1532.5C 411.197,1532.9 412.863,1533.4 414.5,1534C 424.333,1534.17 434.167,1534.33 444,1534.5C 478.028,1534.38 512.195,1534.21 546.5,1534C 548.101,1533.73 549.601,1533.23 551,1532.5C 555.699,1534.09 559.865,1533.09 563.5,1529.5C 565.969,1531.01 568.135,1530.67 570,1528.5C 571.402,1530.97 572.902,1530.97 574.5,1528.5C 573.494,1527.6 573.494,1526.94 574.5,1526.5C 575.251,1527.38 575.751,1528.38 576,1529.5C 576.667,1528.17 577.333,1528.17 578,1529.5C 578.333,1524.5 578.667,1519.5 579,1514.5C 579.333,1521.17 579.667,1527.83 580,1534.5C 581.487,1533.84 582.653,1532.84 583.5,1531.5C 582.571,1523.68 582.404,1515.68 583,1507.5C 583.333,1507.83 583.667,1508.17 584,1508.5C 584.249,1507.38 584.749,1506.38 585.5,1505.5C 586.328,1509.8 586.828,1514.13 587,1518.5C 588.147,1516.27 589.147,1513.94 590,1511.5C 589.617,1514.45 590.117,1517.45 591.5,1520.5C 593.303,1521.14 594.636,1522.3 595.5,1524C 594.975,1524.69 594.308,1525.19 593.5,1525.5C 591.5,1524.5 589.5,1523.5 587.5,1522.5C 587.089,1523.26 586.923,1524.26 587,1525.5C 586.346,1524.3 585.846,1524.3 585.5,1525.5C 587.359,1527.19 589.359,1528.69 591.5,1530C 590.692,1530.31 590.025,1530.81 589.5,1531.5C 591.006,1532.75 592.506,1532.75 594,1531.5C 596.57,1534.14 599.07,1534.47 601.5,1532.5C 603.197,1532.9 604.863,1533.4 606.5,1534C 616.333,1534.17 626.167,1534.33 636,1534.5C 670.028,1534.38 704.195,1534.21 738.5,1534C 740.101,1533.73 741.601,1533.23 743,1532.5C 747.699,1534.09 751.865,1533.09 755.5,1529.5C 757.969,1531.01 760.135,1530.67 762,1528.5C 763.402,1530.97 764.902,1530.97 766.5,1528.5C 765.494,1527.6 765.494,1526.94 766.5,1526.5C 767.251,1527.38 767.751,1528.38 768,1529.5C 768.667,1528.17 769.333,1528.17 770,1529.5C 770.333,1524.17 770.667,1518.83 771,1513.5C 771.333,1520.5 771.667,1527.5 772,1534.5C 773.5,1533.67 774.667,1532.5 775.5,1531C 774.647,1523.71 774.313,1516.38 774.5,1509C 774.892,1507.99 775.559,1507.49 776.5,1507.5C 776.291,1506.91 775.957,1506.41 775.5,1506C 776.5,1502.67 777.5,1502.67 778.5,1506C 778.626,1508.23 778.293,1510.57 777.5,1513C 778.103,1514.83 778.77,1516.66 779.5,1518.5C 780.287,1517.76 780.953,1516.92 781.5,1516C 780.549,1515.28 780.383,1514.45 781,1513.5C 782.142,1515.68 782.975,1518.01 783.5,1520.5C 785.946,1521.43 786.779,1523.09 786,1525.5C 783.973,1524.79 782.973,1523.79 783,1522.5C 777.385,1522.71 776.385,1524.71 780,1528.5C 780.333,1528.17 780.667,1527.83 781,1527.5C 781.494,1529.13 781.66,1530.8 781.5,1532.5C 789.724,1532.03 797.724,1533.03 805.5,1535.5C 829.696,1534.84 853.863,1534.17 878,1533.5C 897.11,1533.91 915.777,1534.24 934,1534.5C 938.82,1533.67 943.32,1532 947.5,1529.5C 949.382,1530.09 951.215,1530.76 953,1531.5C 953.333,1530.5 953.667,1529.5 954,1528.5C 955.873,1529.09 957.54,1528.42 959,1526.5C 959.333,1527.83 959.667,1529.17 960,1530.5C 960.585,1528.87 961.419,1527.37 962.5,1526C 962.355,1525.23 962.022,1524.56 961.5,1524C 962.293,1520.59 962.793,1517.09 963,1513.5C 963.333,1520.5 963.667,1527.5 964,1534.5C 965.487,1533.84 966.653,1532.84 967.5,1531.5C 966.558,1523.34 966.392,1515.01 967,1506.5C 968.085,1504.34 969.251,1504.18 970.5,1506C 970.273,1509.99 969.94,1513.99 969.5,1518C 971.194,1519.73 972.361,1519.23 973,1516.5C 974.65,1517.89 975.15,1519.39 974.5,1521C 975.833,1521.33 977.167,1521.67 978.5,1522C 977.809,1523.07 977.309,1524.23 977,1525.5C 976.047,1523.41 974.714,1523.07 973,1524.5C 971.265,1522.13 970.098,1522.63 969.5,1526C 970.958,1528.12 972.958,1529.45 975.5,1530C 974.692,1530.31 974.025,1530.81 973.5,1531.5C 978.053,1533.45 982.386,1533.78 986.5,1532.5C 988.115,1533.15 989.782,1533.65 991.5,1534C 1033.88,1534.32 1075.72,1534.82 1117,1535.5C 1119.67,1531.5 1122.33,1531.5 1125,1535.5C 1126.03,1532.21 1127.53,1531.88 1129.5,1534.5C 1133.09,1533.06 1136.59,1531.39 1140,1529.5C 1141.99,1529.52 1143.99,1529.52 1146,1529.5C 1146.33,1530.17 1146.67,1530.83 1147,1531.5C 1149,1530.83 1150.33,1529.5 1151,1527.5C 1152.48,1529.95 1153.65,1529.61 1154.5,1526.5C 1153.34,1524.78 1153.51,1523.11 1155,1521.5C 1155.31,1526.88 1155.97,1532.22 1157,1537.5C 1157.75,1536.87 1158.58,1536.37 1159.5,1536C 1158.98,1533.97 1158.65,1531.97 1158.5,1530C 1159.09,1528.49 1159.76,1526.99 1160.5,1525.5C 1162.39,1528.28 1165.06,1529.78 1168.5,1530C 1167.5,1530.33 1166.5,1530.67 1165.5,1531C 1169.52,1532.27 1173.35,1533.1 1177,1533.5C 1178.73,1531.57 1180.73,1531.57 1183,1533.5C 1208.3,1532.38 1233.64,1532.38 1259,1533.5C 1278.15,1531.29 1297.15,1531.29 1316,1533.5C 1318.27,1531.35 1320.77,1531.02 1323.5,1532.5C 1328.59,1530.81 1333.59,1529.81 1338.5,1529.5C 1338.83,1530.17 1339.17,1530.83 1339.5,1531.5C 1341.62,1530.05 1343.95,1529.39 1346.5,1529.5C 1346.35,1528.45 1346.52,1527.45 1347,1526.5C 1348.32,1536.86 1349.99,1536.86 1352,1526.5C 1352.85,1528.12 1353.85,1528.46 1355,1527.5C 1356.65,1529.05 1356.98,1530.72 1356,1532.5C 1356.33,1532.17 1356.67,1531.83 1357,1531.5C 1360.23,1532.48 1363.56,1533.15 1367,1533.5C 1371.17,1533.06 1375.33,1532.73 1379.5,1532.5C 1387.31,1534.3 1394.48,1534.63 1401,1533.5C 1411.12,1534.61 1420.79,1535.28 1430,1535.5C 1432.33,1534.83 1434.67,1534.17 1437,1533.5C 1443.33,1534.83 1449.67,1534.83 1456,1533.5C 1467.67,1534.17 1479.33,1534.83 1491,1535.5C 1497.58,1534.6 1504.24,1533.6 1511,1532.5C 1515.82,1533.52 1520.32,1532.52 1524.5,1529.5C 1526.13,1530.42 1527.63,1530.76 1529,1530.5C 1529.69,1528.11 1530.69,1528.11 1532,1530.5C 1533,1526.83 1534.67,1526.5 1537,1529.5C 1538.59,1527.58 1538.76,1525.58 1537.5,1523.5C 1538.25,1520.22 1538.75,1516.89 1539,1513.5C 1540.08,1520 1540.24,1526.67 1539.5,1533.5C 1541.59,1533.55 1542.92,1532.55 1543.5,1530.5C 1542.41,1521.96 1542.24,1513.3 1543,1504.5C 1543.69,1505.36 1544.52,1506.02 1545.5,1506.5C 1546.11,1511.24 1546.95,1515.91 1548,1520.5C 1548.33,1518.5 1548.67,1516.5 1549,1514.5C 1549.92,1517.12 1551.09,1519.62 1552.5,1522C 1551.14,1523.68 1549.64,1523.85 1548,1522.5C 1544.68,1524.92 1545.02,1526.92 1549,1528.5C 1549.49,1529.79 1549.66,1531.13 1549.5,1532.5C 1558.82,1532.48 1568.15,1533.14 1577.5,1534.5C 1606.16,1534.21 1634.83,1534.21 1663.5,1534.5C 1673.5,1534.33 1683.5,1534.17 1693.5,1534C 1694.77,1533.69 1695.93,1533.19 1697,1532.5C 1699.52,1534.46 1702.18,1535.13 1705,1534.5C 1708.5,1532.91 1712,1531.24 1715.5,1529.5C 1717.45,1530.26 1719.28,1530.59 1721,1530.5C 1721.33,1529.83 1721.67,1529.17 1722,1528.5C 1723.39,1529.55 1724.89,1529.72 1726.5,1529C 1725.35,1528.09 1725.51,1527.25 1727,1526.5C 1731.28,1531.54 1732.28,1536.87 1730,1542.5C 1729.33,1539.83 1728.67,1539.83 1728,1542.5C 1715.75,1540.7 1703.25,1539.86 1690.5,1540C 1698.5,1539.67 1706.5,1539.33 1714.5,1539C 1710,1538.83 1705.5,1538.67 1701,1538.5C 1693.51,1538.22 1687.51,1538.89 1683,1540.5C 1636.84,1540.43 1590.34,1540.43 1543.5,1540.5C 1543.55,1543.37 1543.22,1546.21 1542.5,1549C 1542.63,1550.63 1543.13,1552.13 1544,1553.5C 1544.51,1550.81 1545.34,1548.31 1546.5,1546C 1546.04,1545.59 1545.71,1545.09 1545.5,1544.5C 1606.16,1543.5 1666.83,1543.17 1727.5,1543.5C 1727.83,1549.54 1727.5,1555.54 1726.5,1561.5C 1725.5,1561.83 1724.83,1562.5 1724.5,1563.5C 1725.27,1564.71 1726.11,1564.71 1727,1563.5C 1727.33,1565.17 1727.67,1566.83 1728,1568.5C 1728.42,1567.33 1729.09,1566.33 1730,1565.5C 1729.98,1567.11 1729.81,1568.77 1729.5,1570.5 Z"/></g>
<g><path style="opacity:1" fill="#5333e1" d="M 1100.5,1842.5 C 1085.5,1842.5 1070.5,1842.5 1055.5,1842.5C 1056.72,1841.84 1058.05,1841.17 1059.5,1840.5C 1057.5,1838.83 1055.5,1837.17 1053.5,1835.5C 1054.74,1834.72 1055.74,1833.72 1056.5,1832.5C 1055.1,1829.63 1053.26,1826.96 1051,1824.5C 1049.66,1821.78 1049.5,1819.11 1050.5,1816.5C 1054.77,1818.27 1058.94,1820.27 1063,1822.5C 1064.27,1820.43 1066.11,1819.09 1068.5,1818.5C 1069.39,1817.68 1069.72,1816.68 1069.5,1815.5C 1077.68,1812.54 1086.18,1810.54 1095,1809.5C 1100.78,1809.99 1106.28,1811.49 1111.5,1814C 1113.16,1815.44 1113.82,1817.28 1113.5,1819.5C 1117.46,1819.93 1120.63,1818.6 1123,1815.5C 1123.76,1818.47 1125.26,1820.97 1127.5,1823C 1121.72,1826.77 1120.72,1831.27 1124.5,1836.5C 1121.97,1838.85 1118.97,1840.35 1115.5,1841C 1110.32,1841.17 1105.32,1841.67 1100.5,1842.5 Z"/></g>
<g><path style="opacity:0.861" fill="#3f22ab" d="M 874.5,1824.5 C 887.136,1825.5 899.803,1827.17 912.5,1829.5C 913.243,1830.18 913.909,1830.85 914.5,1831.5C 900.911,1829.9 887.578,1827.56 874.5,1824.5 Z"/></g>
<g><path style="opacity:0.971" fill="#4326c4" d="M 1260.5,1834.5 C 1233.68,1838.7 1206.68,1841.2 1179.5,1842C 1149.17,1842.79 1118.84,1843.29 1088.5,1843.5C 1058.3,1843.78 1028.3,1842.78 998.5,1840.5C 1017.51,1839.28 1036.51,1839.95 1055.5,1842.5C 1070.5,1842.5 1085.5,1842.5 1100.5,1842.5C 1110.51,1842.67 1120.51,1842.5 1130.5,1842C 1131.55,1840.62 1132.88,1839.62 1134.5,1839C 1140.42,1838.19 1146.25,1838.36 1152,1839.5C 1152.33,1838.83 1152.67,1838.17 1153,1837.5C 1155.02,1838.99 1156.69,1838.66 1158,1836.5C 1159.8,1839.65 1162.3,1840.31 1165.5,1838.5C 1172.04,1841.17 1178.37,1841 1184.5,1838C 1208.56,1836.72 1232.9,1834.56 1257.5,1831.5C 1258.85,1832.19 1259.85,1833.19 1260.5,1834.5 Z"/></g>
<g><path style="opacity:0.765" fill="#2c167f" d="M 938.5,1834.5 C 943.731,1834.44 948.731,1835.11 953.5,1836.5C 948.269,1836.56 943.269,1835.89 938.5,1834.5 Z"/></g>
<g><path style="opacity:0.927" fill="#4827c2" d="M 511.5,1962.5 C 498.909,1958.28 488.409,1950.94 480,1940.5C 439.462,1873.41 398.962,1806.41 358.5,1739.5C 359.458,1739.05 360.292,1738.38 361,1737.5C 400.049,1802.81 439.216,1867.81 478.5,1932.5C 483.833,1938.83 489.167,1945.17 494.5,1951.5C 500.502,1954.87 506.169,1958.54 511.5,1962.5 Z"/></g>
</svg>
